<?xml version="1.0" standalone="no"?>
<!DOCTYPE svg PUBLIC "-//W3C//DTD SVG 20010904//EN"
 "http://www.w3.org/TR/2001/REC-SVG-20010904/DTD/svg10.dtd">
<svg version="1.0" xmlns="http://www.w3.org/2000/svg"
 width="20" height="20" viewBox="0 0 512.000000 512.000000"
 preserveAspectRatio="xMidYMid meet">
<metadata>
Created by potrace 1.16, written by Peter Selinger 2001-2019
</metadata>
<g transform="translate(0.000000,512.000000) scale(0.100000,-0.100000)"
fill="#000000" stroke="none">
<path d="M425 5101 c-196 -56 -359 -222 -409 -417 -21 -80 -21 -228 0 -308 9
-33 32 -92 52 -131 32 -64 103 -138 841 -877 l806 -808 -806 -807 c-738 -740
-809 -814 -841 -878 -49 -95 -68 -175 -68 -285 0 -169 55 -304 170 -420 116
-115 251 -170 420 -170 110 0 190 19 285 68 64 32 138 103 877 841 l808 806
808 -806 c739 -738 813 -809 877 -841 95 -49 175 -68 285 -68 169 0 304 55
420 170 115 116 170 251 170 420 0 110 -19 190 -68 285 -32 64 -103 138 -841
878 l-806 807 806 808 c738 739 809 813 841 877 49 95 68 175 68 285 0 169
-55 304 -170 420 -116 115 -251 170 -420 170 -110 0 -190 -19 -285 -68 -64
-32 -138 -103 -878 -841 l-807 -806 -808 806 c-739 738 -813 809 -877 841 -38
20 -98 43 -131 52 -83 21 -240 20 -319 -3z"/>
</g>
</svg>
