<?xml version="1.0" standalone="no"?>
<!DOCTYPE svg PUBLIC "-//W3C//DTD SVG 20010904//EN"
 "http://www.w3.org/TR/2001/REC-SVG-20010904/DTD/svg10.dtd">
<svg version="1.0" xmlns="http://www.w3.org/2000/svg"
 width="512.000000pt" height="512.000000pt" viewBox="0 0 512.000000 512.000000"
 preserveAspectRatio="xMidYMid meet">
<metadata>
Created by potrace 1.16, written by Peter Selinger 2001-2019
</metadata>
<g transform="translate(0.000000,512.000000) scale(0.100000,-0.100000)"
fill="#000000" stroke="none">
<path d="M1910 4756 c-684 -277 -1186 -852 -1365 -1563 -55 -216 -68 -354 -62
-647 5 -261 13 -331 63 -529 299 -1187 1523 -1930 2690 -1632 565 144 1060
511 1352 1002 46 77 52 93 52 142 0 66 -23 111 -72 141 -43 27 -120 23 -248
-13 -168 -47 -271 -60 -455 -60 -314 0 -570 64 -865 214 -355 182 -642 467
-824 819 -105 202 -158 359 -198 577 -26 145 -31 472 -9 623 30 219 109 463
214 664 44 84 52 107 51 153 0 59 -19 93 -74 131 -53 35 -123 29 -250 -22z
m-191 -523 c-127 -432 -130 -914 -8 -1338 182 -636 649 -1171 1256 -1439 306
-135 689 -208 997 -191 l119 7 -22 -30 c-48 -68 -258 -239 -397 -323 -627
-378 -1379 -358 -1999 56 -427 285 -722 731 -827 1248 -21 101 -23 140 -23
387 1 260 2 282 27 400 98 456 332 848 678 1135 64 53 206 155 215 155 2 0 -5
-30 -16 -67z"/>
</g>
</svg>
